<svg width="375" height="1129" viewBox="0 0 375 1129" fill="none" xmlns="http://www.w3.org/2000/svg">
<path d="M0.421967 1052.14L-14.6293 1037.09H-6.6337V1038.77L-10.4545 1038.76L-7.92764 1041.31H-2.15372V1043.07H-6.16983L2.89999 1052.13L0.421967 1052.14Z" fill="white" fill-opacity="0.3"/>
<path d="M56.5671 1042.47L52.8683 1042.46L57.7878 1047.36H55.6149L48.9499 1040.76H56.5305L56.5671 1042.47ZM47.8268 1038.95L44.7263 1038.96L57.8122 1052L55.2853 1052.01L40.466 1037.14H47.8268V1038.95Z" fill="white" fill-opacity="0.3"/>
<path d="M94.1531 1046.14L109.156 1031.17V1040.83H107.215V1035.68L94.1409 1048.83L94.1531 1046.14Z" fill="white" fill-opacity="0.3"/>
<path d="M166.367 1042.47L162.668 1042.46L167.588 1047.36H165.415L158.75 1040.76H166.33L166.367 1042.47ZM157.627 1038.95L154.526 1038.96L167.612 1052L165.085 1052.01L150.266 1037.14H157.627V1038.95Z" fill="white" fill-opacity="0.3"/>
<path d="M220.022 1052.14L204.971 1037.09H212.966V1038.77L209.146 1038.76L211.672 1041.31H217.446V1043.07H213.43L222.5 1052.13L220.022 1052.14Z" fill="white" fill-opacity="0.3"/>
<path d="M258.78 1046.35L273.831 1031.3V1039.3H272.147L272.159 1035.48L269.608 1038V1043.78H267.85V1039.76L258.792 1048.83L258.78 1046.35Z" fill="white" fill-opacity="0.3"/>
<path d="M323.348 1047.6L323.36 1043.9L318.465 1048.82V1046.65L325.057 1039.98V1047.56L323.348 1047.6ZM326.876 1038.86L326.863 1035.76L313.826 1048.84L313.814 1046.32L328.682 1031.5V1038.86H326.876Z" fill="white" fill-opacity="0.3"/>
<path d="M384.722 1052.14L369.671 1037.09H377.666V1038.77L373.846 1038.76L376.372 1041.31H382.146V1043.07H378.13L387.2 1052.13L384.722 1052.14Z" fill="white" fill-opacity="0.3"/>
<path d="M-3.24786 909.274L-3.26007 912.973L1.63495 908.053V910.226L-4.95685 916.891V909.311L-3.24786 909.274ZM-6.7757 918.014L-6.76349 921.115L6.27362 908.029L6.28583 910.556L-8.58234 925.375V918.014H-6.7757Z" fill="white" fill-opacity="0.3"/>
<path d="M51.6522 909.274L51.64 912.973L56.535 908.053V910.226L49.9432 916.891V909.311L51.6522 909.274ZM48.1243 918.014L48.1365 921.115L61.1736 908.029L61.1859 910.556L46.3177 925.375V918.014H48.1243Z" fill="white" fill-opacity="0.3"/>
<path d="M110.222 926.661L95.1707 911.61H103.166V913.294L99.3455 913.282L101.872 915.833H107.646V917.591H103.63L112.7 926.649L110.222 926.661Z" fill="white" fill-opacity="0.3"/>
<path d="M155.186 904.807L170.164 919.809H160.496V917.868H165.647L152.5 904.794L155.186 904.807Z" fill="white" fill-opacity="0.3"/>
<path d="M220.022 926.661L204.971 911.61H212.966V913.294L209.146 913.282L211.672 915.833H217.446V917.591H213.43L222.5 926.649L220.022 926.661Z" fill="white" fill-opacity="0.3"/>
<path d="M274.714 926.588L259.736 911.585H269.404V913.526H264.253L277.4 926.6L274.714 926.588Z" fill="white" fill-opacity="0.3"/>
<path d="M319.678 904.733L334.729 919.785H326.734V918.1L330.555 918.112L328.028 915.561H322.254V913.803H326.27L317.2 904.746L319.678 904.733Z" fill="white" fill-opacity="0.3"/>
<path d="M368.58 920.875L383.631 905.824V913.82H381.947L381.959 909.999L379.408 912.526V918.3H377.65V914.284L368.592 923.354L368.58 920.875Z" fill="white" fill-opacity="0.3"/>
<path d="M6.4201 785.041L-8.63116 800.092V792.096H-6.94659L-6.9588 795.917L-4.40753 793.39L-4.40753 787.616H-2.64972V791.632L6.4079 782.562L6.4201 785.041Z" fill="white" fill-opacity="0.3"/>
<path d="M45.178 779.253L60.2293 794.304H52.2337V792.62L56.0545 792.632L53.5276 790.081H47.7537V788.323H51.7698L42.7 779.265L45.178 779.253Z" fill="white" fill-opacity="0.3"/>
<path d="M98.8329 788.921L102.532 788.933L97.6122 784.038H99.7851L106.45 790.63H98.8695L98.8329 788.921ZM107.573 792.449L110.674 792.437L97.5878 779.399L100.115 779.387L114.934 794.255H107.573V792.449Z" fill="white" fill-opacity="0.3"/>
<path d="M158.648 796.64L158.66 792.941L153.765 797.861V795.688L160.357 789.023V796.604L158.648 796.64ZM162.176 787.9L162.163 784.799L149.126 797.885L149.114 795.358L163.982 780.539V787.9H162.176Z" fill="white" fill-opacity="0.3"/>
<path d="M203.953 795.188L218.956 780.209V789.877H217.015V784.726L203.941 797.873L203.953 795.188Z" fill="white" fill-opacity="0.3"/>
<path d="M264.778 779.253L279.829 794.304H271.834V792.62L275.654 792.632L273.128 790.081H267.354V788.323H271.37L262.3 779.265L264.778 779.253Z" fill="white" fill-opacity="0.3"/>
<path d="M313.68 795.395L328.731 780.344V788.339H327.047L327.059 784.519L324.508 787.045V792.819H322.75V788.803L313.692 797.873L313.68 795.395Z" fill="white" fill-opacity="0.3"/>
<path d="M374.578 779.253L389.629 794.304H381.634V792.62L385.454 792.632L382.928 790.081H377.154V788.323H381.17L372.1 779.265L374.578 779.253Z" fill="white" fill-opacity="0.3"/>
<path d="M-9.51447 653.848L5.46356 668.85H-4.20441V666.909H0.94696L-12.2 653.835L-9.51447 653.848Z" fill="white" fill-opacity="0.3"/>
<path d="M61.3201 659.56L46.2688 674.611V666.616H47.9534L47.9412 670.437L50.4925 667.91V662.136H52.2503V666.152L61.3079 657.082L61.3201 659.56Z" fill="white" fill-opacity="0.3"/>
<path d="M100.286 653.848L115.264 668.85H105.596V666.909H110.747L97.6 653.835L100.286 653.848Z" fill="white" fill-opacity="0.3"/>
<path d="M148.98 669.917L164.031 654.865V662.861H162.347L162.359 659.04L159.808 661.567V667.341H158.05V663.325L148.992 672.395L148.98 669.917Z" fill="white" fill-opacity="0.3"/>
<path d="M225.947 659.768L210.944 674.746V665.078H212.885V670.229L225.959 657.082L225.947 659.768Z" fill="white" fill-opacity="0.3"/>
<path d="M268.448 671.162L268.46 667.463L263.565 672.382V670.209L270.157 663.544V671.125L268.448 671.162ZM271.976 662.421L271.963 659.321L258.926 672.407L258.914 669.88L273.782 655.061V662.421H271.976Z" fill="white" fill-opacity="0.3"/>
<path d="M329.822 675.702L314.771 660.651H322.766V662.335L318.945 662.323L321.472 664.875H327.246V666.632H323.23L332.3 675.69L329.822 675.702Z" fill="white" fill-opacity="0.3"/>
<path d="M384.722 675.702L369.671 660.651H377.666V662.335L373.846 662.323L376.372 664.875H382.146V666.632H378.13L387.2 675.69L384.722 675.702Z" fill="white" fill-opacity="0.3"/>
<path d="M0.214447 550.152L-14.7636 535.15H-5.09561V537.091H-10.247L2.89999 550.165L0.214447 550.152Z" fill="white" fill-opacity="0.3"/>
<path d="M45.178 528.295L60.2293 543.346H52.2337V541.662L56.0545 541.674L53.5276 539.123H47.7537V537.365H51.7698L42.7 528.307L45.178 528.295Z" fill="white" fill-opacity="0.3"/>
<path d="M100.078 528.295L115.129 543.346H107.134V541.662L110.954 541.674L108.428 539.123H102.654V537.365H106.67L97.6 528.307L100.078 528.295Z" fill="white" fill-opacity="0.3"/>
<path d="M149.053 544.229L164.056 529.251V538.919H162.115V533.768L149.041 546.915L149.053 544.229Z" fill="white" fill-opacity="0.3"/>
<path d="M216.352 532.838L216.34 536.537L221.235 531.618V533.791L214.643 540.456V532.875L216.352 532.838ZM212.824 541.579L212.837 544.679L225.874 531.593L225.886 534.12L211.018 548.939V541.579H212.824Z" fill="white" fill-opacity="0.3"/>
<path d="M268.448 545.682L268.46 541.983L263.565 546.903V544.73L270.157 538.065V545.646L268.448 545.682ZM271.976 536.942L271.963 533.841L258.926 546.927L258.914 544.4L273.782 529.581V536.942H271.976Z" fill="white" fill-opacity="0.3"/>
<path d="M319.886 528.368L334.864 543.371H325.196V541.43H330.347L317.2 528.356L319.886 528.368Z" fill="white" fill-opacity="0.3"/>
<path d="M374.786 528.368L389.764 543.371H380.096V541.43H385.247L372.1 528.356L374.786 528.368Z" fill="white" fill-opacity="0.3"/>
<path d="M6.4201 408.604L-8.63116 423.655V415.66H-6.94659L-6.9588 419.48L-4.40753 416.954L-4.40753 411.18H-2.64972V415.196L6.4079 406.126L6.4201 408.604Z" fill="white" fill-opacity="0.3"/>
<path d="M39.1799 418.958L54.2311 403.907V411.903H52.5466L52.5588 408.082L50.0075 410.609V416.383H48.2497V412.367L39.1921 421.437L39.1799 418.958Z" fill="white" fill-opacity="0.3"/>
<path d="M100.078 402.816L115.129 417.868H107.134V416.183L110.954 416.195L108.428 413.644H102.654V411.886H106.67L97.6 402.829L100.078 402.816Z" fill="white" fill-opacity="0.3"/>
<path d="M171.047 408.812L156.044 423.79V414.122H157.985V419.273L171.059 406.126L171.047 408.812Z" fill="white" fill-opacity="0.3"/>
<path d="M225.947 408.812L210.944 423.79V414.122H212.885V419.273L225.959 406.126L225.947 408.812Z" fill="white" fill-opacity="0.3"/>
<path d="M258.78 418.958L273.831 403.907V411.903H272.147L272.159 408.082L269.608 410.609V416.383H267.85V412.367L258.792 421.437L258.78 418.958Z" fill="white" fill-opacity="0.3"/>
<path d="M323.348 420.204L323.36 416.505L318.465 421.424V419.251L325.057 412.586V420.167L323.348 420.204ZM326.876 411.463L326.863 408.363L313.826 421.449L313.814 418.922L328.682 404.103V411.463H326.876Z" fill="white" fill-opacity="0.3"/>
<path d="M385.967 415.078L382.268 415.066L387.188 419.961H385.015L378.35 413.369H385.93L385.967 415.078ZM377.227 411.55L374.126 411.562L387.212 424.6L384.685 424.612L369.866 409.744H377.227V411.55Z" fill="white" fill-opacity="0.3"/>
<path d="M6.34686 283.334L-8.65558 298.312V288.644H-6.71466V293.795L6.35907 280.648L6.34686 283.334Z" fill="white" fill-opacity="0.3"/>
<path d="M43.9329 287.007L47.6316 287.019L42.7122 282.124H44.885L51.5501 288.716H43.9695L43.9329 287.007ZM52.6731 290.535L55.7737 290.522L42.6878 277.485L45.2146 277.473L60.034 292.341H52.6731V290.535Z" fill="white" fill-opacity="0.3"/>
<path d="M100.078 277.339L115.129 292.39H107.134V290.706L110.954 290.718L108.428 288.167H102.654V286.409H106.67L97.6 277.351L100.078 277.339Z" fill="white" fill-opacity="0.3"/>
<path d="M153.733 287.007L157.432 287.019L152.512 282.124H154.685L161.35 288.716H153.77L153.733 287.007ZM162.473 290.535L165.574 290.522L152.488 277.485L155.015 277.473L169.834 292.341H162.473V290.535Z" fill="white" fill-opacity="0.3"/>
<path d="M226.02 283.126L210.969 298.178V290.182H212.653L212.641 294.003L215.192 291.476V285.702H216.95V289.718L226.008 280.648L226.02 283.126Z" fill="white" fill-opacity="0.3"/>
<path d="M263.533 287.007L267.232 287.019L262.312 282.124H264.485L271.15 288.716H263.57L263.533 287.007ZM272.273 290.535L275.374 290.522L262.288 277.485L264.815 277.473L279.634 292.341H272.273V290.535Z" fill="white" fill-opacity="0.3"/>
<path d="M335.747 283.334L320.744 298.312V288.644H322.685V293.795L335.759 280.648L335.747 283.334Z" fill="white" fill-opacity="0.3"/>
<path d="M368.653 293.273L383.656 278.295V287.963H381.715V282.812L368.641 295.959L368.653 293.273Z" fill="white" fill-opacity="0.3"/>
<path d="M48.8478 169.247L48.86 165.548L43.965 170.467V168.294L50.5568 161.629V169.21L48.8478 169.247ZM52.3757 160.506L52.3635 157.406L39.3264 170.492L39.3141 167.965L54.1823 153.146V160.506H52.3757Z" fill="white" fill-opacity="0.3"/>
<path d="M103.748 169.247L103.76 165.548L98.865 170.467V168.294L105.457 161.629V169.21L103.748 169.247ZM107.276 160.506L107.263 157.406L94.2263 170.492L94.2141 167.965L109.082 153.146V160.506H107.276Z" fill="white" fill-opacity="0.3"/>
<path d="M153.733 161.527L157.432 161.54L152.512 156.645H154.685L161.35 163.236H153.77L153.733 161.527ZM162.473 165.055L165.574 165.043L152.488 152.006L155.015 151.994L169.834 166.862H162.473V165.055Z" fill="white" fill-opacity="0.3"/>
<path d="M221.267 164.121L217.568 164.109L222.488 169.004H220.315L213.65 162.412H221.23L221.267 164.121ZM212.527 160.593L209.426 160.605L222.512 173.643L219.985 173.655L205.166 158.787H212.527V160.593Z" fill="white" fill-opacity="0.3"/>
<path d="M264.778 151.859L279.829 166.911H271.834V165.226L275.654 165.238L273.128 162.687H267.354V160.929H271.37L262.3 151.872L264.778 151.859Z" fill="white" fill-opacity="0.3"/>
<path d="M329.614 173.716L314.636 158.713H324.304V160.654H319.153L332.3 173.728L329.614 173.716Z" fill="white" fill-opacity="0.3"/>
<path d="M374.786 151.933L389.764 166.935H380.096V164.994H385.247L372.1 151.92L374.786 151.933Z" fill="white" fill-opacity="0.3"/>
<path d="M1.66708 38.6416L-2.03165 38.6294L2.88779 43.5244H0.714935L-5.9501 36.9326H1.63046L1.66708 38.6416ZM-7.07315 35.1138L-10.1737 35.126L2.9122 48.1631L0.385345 48.1753L-14.434 33.3071H-7.07315V35.1138Z" fill="white" fill-opacity="0.3"/>
<path d="M56.5671 38.6416L52.8683 38.6294L57.7878 43.5244H55.6149L48.9499 36.9326H56.5305L56.5671 38.6416ZM47.8268 35.1138L44.7263 35.126L57.8122 48.1631L55.2853 48.1753L40.466 33.3071H47.8268V35.1138Z" fill="white" fill-opacity="0.3"/>
<path d="M103.748 43.7671L103.76 40.0684L98.865 44.9878V42.8149L105.457 36.1499V43.7305L103.748 43.7671ZM107.276 35.0269L107.263 31.9263L94.2263 45.0122L94.2141 42.4854L109.082 27.666V35.0269H107.276Z" fill="white" fill-opacity="0.3"/>
<path d="M154.978 26.3799L170.029 41.4312H162.034V39.7466L165.854 39.7588L163.328 37.2075L157.554 37.2075V35.4497L161.57 35.4497L152.5 26.3921L154.978 26.3799Z" fill="white" fill-opacity="0.3"/>
<path d="M203.88 42.522L218.931 27.4707V35.4663H217.247L217.259 31.6455L214.708 34.1724V39.9463H212.95V35.9302L203.892 45L203.88 42.522Z" fill="white" fill-opacity="0.3"/>
<path d="M268.448 43.7671L268.46 40.0684L263.565 44.9878V42.8149L270.157 36.1499V43.7305L268.448 43.7671ZM271.976 35.0269L271.963 31.9263L258.926 45.0122L258.914 42.4854L273.782 27.666V35.0269H271.976Z" fill="white" fill-opacity="0.3"/>
<path d="M335.747 32.375L320.744 47.353V37.6851H322.685V42.8364L335.759 29.6895L335.747 32.375Z" fill="white" fill-opacity="0.3"/>
<path d="M378.248 43.7671L378.26 40.0684L373.365 44.9878V42.8149L379.957 36.1499V43.7305L378.248 43.7671ZM381.776 35.0269L381.763 31.9263L368.726 45.0122L368.714 42.4854L383.582 27.666V35.0269H381.776Z" fill="white" fill-opacity="0.3"/>
</svg>
